<svg xmlns="http://www.w3.org/2000/svg" xmlns:xl="http://www.w3.org/1999/xlink" width="224.766" height="323.359" version="1.1" viewBox="157.453 164 224.766 323.359"><defs><marker id="FilledArrow_Marker" stroke-linejoin="miter" stroke-miterlimit="10" color="#7f8080" markerHeight="8" markerUnits="strokeWidth" markerWidth="10" orient="auto" overflow="visible" viewBox="-1 -4 10 8"><g><path fill="currentColor" stroke="currentColor" stroke-width="1" d="M 8 0 L 0 -3 L 0 3 Z"/></g></marker></defs><g id="Canvas_1" fill="none" fill-opacity="1" stroke="none" stroke-dasharray="none" stroke-opacity="1"><title>Canvas 1</title><rect width="224.766" height="323.359" x="157.453" y="164" fill="#fff"/><g id="Canvas_1_Layer_1"><title>Layer 1</title><g id="Graphic_2"><text fill="#000" transform="translate(167.45312 174)"><tspan x="0" y="16" fill="#000" font-family="Monaco" font-size="16">node_modules</tspan></text></g><g id="Graphic_3"><text fill="#0096ff" transform="translate(197 205.33594)"><tspan x="0" y="16" fill="#0096ff" font-family="Monaco" font-size="16">express</tspan></text></g><g id="Graphic_4"><text fill="#000" transform="translate(197 236.67188)"><tspan x="0" y="16" fill="#000" font-family="Monaco" font-size="16">.pnpm</tspan></text></g><g id="Graphic_5"><text fill="#000" transform="translate(227 268.0078)"><tspan x="0" y="16" fill="#000" font-family="Monaco" font-size="16">express@4.17.3</tspan></text></g><g id="Graphic_6"><text fill="#000" transform="translate(257 299.34375)"><tspan x="0" y="16" fill="#000" font-family="Monaco" font-size="16">node_modules</tspan></text></g><g id="Graphic_7"><text fill="#000" transform="translate(287 330.6797)"><tspan x="0" y="16" fill="#000" font-family="Monaco" font-size="16">express</tspan></text></g><g id="Graphic_8"><text fill="#0096ff" transform="translate(287 362.01562)"><tspan x="0" y="16" fill="#0096ff" font-family="Monaco" font-size="16">cookie</tspan></text></g><g id="Graphic_9"><text fill="#000" transform="translate(227 393.35156)"><tspan x="0" y="16" fill="#000" font-family="Monaco" font-size="16">cookie@0.4.2</tspan></text></g><g id="Graphic_10"><text fill="#000" transform="translate(257 424.6875)"><tspan x="0" y="16" fill="#000" font-family="Monaco" font-size="16">node_modules</tspan></text></g><g id="Graphic_11"><text fill="#000" transform="translate(287 456.02344)"><tspan x="0" y="16" fill="#000" font-family="Monaco" font-size="16">cookie</tspan></text></g><g id="Line_20"><path stroke="#7f8080" stroke-linecap="round" stroke-linejoin="round" stroke-width="1" marker-end="url(#FilledArrow_Marker)" d="M 192 216.0039 L 182 216.0039 L 180.75 216.125 L 179.5 216.125 L 179.5 341.34766 L 272.1 341.34766"/></g><g id="Line_21"><path stroke="#7f8080" stroke-linecap="round" stroke-linejoin="round" stroke-width="1" marker-end="url(#FilledArrow_Marker)" d="M 282 372.6836 L 272 372.6836 L 217.5 373 L 218 457.5 L 218 466.6914 L 272.1 466.6914"/></g></g></g></svg>